<svg viewBox="-16 -32 880 192" width="880" height="192" xmlns="http://www.w3.org/2000/svg"><desc>Generated with https://github.com/Platane/snk</desc><style>@keyframes c0{3.82%{fill:var(--c1)}3.84%,to{fill:var(--ce)}}@keyframes c1{5.22%{fill:var(--c1)}5.24%,to{fill:var(--ce)}}@keyframes c2{1.04%{fill:var(--c1)}1.06%,to{fill:var(--ce)}}@keyframes c3{4.52%{fill:var(--c1)}4.54%,to{fill:var(--ce)}}@keyframes c4{3.13%{fill:var(--c1)}3.15%,to{fill:var(--ce)}}@keyframes c5{50.16%{fill:var(--c2)}50.18%,to{fill:var(--ce)}}@keyframes c6{2.08%{fill:var(--c1)}2.1%,to{fill:var(--ce)}}@keyframes c7{91.63%{fill:var(--c4)}91.65%,to{fill:var(--ce)}}@keyframes c8{49.47%{fill:var(--c2)}49.49%,to{fill:var(--ce)}}@keyframes c9{49.82%{fill:var(--c2)}49.84%,to{fill:var(--ce)}}@keyframes ca{88.84%{fill:var(--c3)}88.86%,to{fill:var(--ce)}}@keyframes cb{49.12%{fill:var(--c2)}49.14%,to{fill:var(--ce)}}@keyframes cc{89.89%{fill:var(--c3)}89.91%,to{fill:var(--ce)}}@keyframes cd{44.24%{fill:var(--c2)}44.26%,to{fill:var(--ce)}}@keyframes ce{43.89%{fill:var(--c1)}43.91%,to{fill:var(--ce)}}@keyframes cf{88.14%{fill:var(--c3)}88.16%,to{fill:var(--ce)}}@keyframes cg{48.77%{fill:var(--c2)}48.79%,to{fill:var(--ce)}}@keyframes ch{46.33%{fill:var(--c2)}46.35%,to{fill:var(--ce)}}@keyframes ci{48.42%{fill:var(--c2)}48.44%,to{fill:var(--ce)}}@keyframes cj{87.1%{fill:var(--c3)}87.12%,to{fill:var(--ce)}}@keyframes ck{44.94%{fill:var(--c2)}44.96%,to{fill:var(--ce)}}@keyframes cl{45.29%{fill:var(--c2)}45.31%,to{fill:var(--ce)}}@keyframes cm{9.75%{fill:var(--c1)}9.77%,to{fill:var(--ce)}}@keyframes cn{8.7%{fill:var(--c1)}8.72%,to{fill:var(--ce)}}@keyframes co{13.58%{fill:var(--c1)}13.6%,to{fill:var(--ce)}}@keyframes cp{13.23%{fill:var(--c1)}13.25%,to{fill:var(--ce)}}@keyframes cq{12.88%{fill:var(--c1)}12.9%,to{fill:var(--ce)}}@keyframes cr{93.37%{fill:var(--c4)}93.39%,to{fill:var(--ce)}}@keyframes cs{9.05%{fill:var(--c1)}9.07%,to{fill:var(--ce)}}@keyframes ct{13.93%{fill:var(--c1)}13.95%,to{fill:var(--ce)}}@keyframes cu{12.53%{fill:var(--c1)}12.55%,to{fill:var(--ce)}}@keyframes cv{11.49%{fill:var(--c1)}11.51%,to{fill:var(--ce)}}@keyframes cw{94.42%{fill:var(--c4)}94.44%,to{fill:var(--ce)}}@keyframes cx{14.28%{fill:var(--c1)}14.3%,to{fill:var(--ce)}}@keyframes cy{11.84%{fill:var(--c1)}11.86%,to{fill:var(--ce)}}@keyframes cz{15.67%{fill:var(--c1)}15.69%,to{fill:var(--ce)}}@keyframes c10{56.44%{fill:var(--c2)}56.46%,to{fill:var(--ce)}}@keyframes c11{54.69%{fill:var(--c2)}54.71%,to{fill:var(--ce)}}@keyframes c12{16.71%{fill:var(--c1)}16.73%,to{fill:var(--ce)}}@keyframes c13{55.04%{fill:var(--c2)}55.06%,to{fill:var(--ce)}}@keyframes c14{22.99%{fill:var(--c1)}23.01%,to{fill:var(--ce)}}@keyframes c15{17.76%{fill:var(--c1)}17.78%,to{fill:var(--ce)}}@keyframes c16{17.41%{fill:var(--c1)}17.43%,to{fill:var(--ce)}}@keyframes c17{18.11%{fill:var(--c1)}18.13%,to{fill:var(--ce)}}@keyframes c18{58.53%{fill:var(--c2)}58.55%,to{fill:var(--ce)}}@keyframes c19{18.81%{fill:var(--c1)}18.83%,to{fill:var(--ce)}}@keyframes c1a{19.85%{fill:var(--c1)}19.87%,to{fill:var(--ce)}}@keyframes c1b{20.2%{fill:var(--c1)}20.22%,to{fill:var(--ce)}}@keyframes c1c{59.22%{fill:var(--c2)}59.24%,to{fill:var(--ce)}}@keyframes c1d{81.52%{fill:var(--c3)}81.54%,to{fill:var(--ce)}}@keyframes c1e{60.97%{fill:var(--c2)}60.99%,to{fill:var(--ce)}}@keyframes c1f{27.52%{fill:var(--c1)}27.54%,to{fill:var(--ce)}}@keyframes c1g{33.79%{fill:var(--c1)}33.81%,to{fill:var(--ce)}}@keyframes c1h{33.44%{fill:var(--c1)}33.46%,to{fill:var(--ce)}}@keyframes c1i{63.4%{fill:var(--c2)}63.42%,to{fill:var(--ce)}}@keyframes c1j{28.91%{fill:var(--c1)}28.93%,to{fill:var(--ce)}}@keyframes c1k{31%{fill:var(--c1)}31.02%,to{fill:var(--ce)}}@keyframes c1l{66.54%{fill:var(--c2)}66.56%,to{fill:var(--ce)}}@keyframes c1m{70.02%{fill:var(--c2)}70.04%,to{fill:var(--ce)}}@keyframes c1n{70.72%{fill:var(--c3)}70.74%,to{fill:var(--ce)}}@keyframes c1o{70.37%{fill:var(--c2)}70.39%,to{fill:var(--ce)}}@keyframes u0{1.04%{transform:scale(0,1)}1.06%,2.08%{transform:scale(.03,1)}2.1%,3.13%{transform:scale(.06,1)}3.15%,3.82%{transform:scale(.09,1)}3.84%,4.52%{transform:scale(.13,1)}4.54%,5.22%{transform:scale(.16,1)}5.24%,8.7%{transform:scale(.19,1)}8.72%,9.05%{transform:scale(.22,1)}9.07%,9.75%{transform:scale(.25,1)}11.49%,9.77%{transform:scale(.28,1)}11.51%,11.84%{transform:scale(.31,1)}11.86%,12.53%{transform:scale(.34,1)}12.55%,12.88%{transform:scale(.38,1)}12.9%,13.23%{transform:scale(.41,1)}13.25%,13.58%{transform:scale(.44,1)}13.6%,13.93%{transform:scale(.47,1)}13.95%,14.28%{transform:scale(.5,1)}14.3%,15.67%{transform:scale(.53,1)}15.69%,16.71%{transform:scale(.56,1)}16.73%,17.41%{transform:scale(.59,1)}17.43%,17.76%{transform:scale(.63,1)}17.78%,18.11%{transform:scale(.66,1)}18.13%,18.81%{transform:scale(.69,1)}18.83%,19.85%{transform:scale(.72,1)}19.87%,20.2%{transform:scale(.75,1)}20.22%,22.99%{transform:scale(.78,1)}23.01%,27.52%{transform:scale(.81,1)}27.54%,28.91%{transform:scale(.84,1)}28.93%,31%{transform:scale(.88,1)}31.02%,33.44%{transform:scale(.91,1)}33.46%,33.79%{transform:scale(.94,1)}33.81%,43.89%{transform:scale(.97,1)}43.91%,to{transform:scale(1,1)}}@keyframes u1{44.24%{transform:scale(0,1)}44.26%,44.94%{transform:scale(.05,1)}44.96%,45.29%{transform:scale(.1,1)}45.31%,46.33%{transform:scale(.15,1)}46.35%,48.42%{transform:scale(.2,1)}48.44%,48.77%{transform:scale(.25,1)}48.79%,49.12%{transform:scale(.3,1)}49.14%,49.47%{transform:scale(.35,1)}49.49%,49.82%{transform:scale(.4,1)}49.84%,50.16%{transform:scale(.45,1)}50.18%,54.69%{transform:scale(.5,1)}54.71%,55.04%{transform:scale(.55,1)}55.06%,56.44%{transform:scale(.6,1)}56.46%,58.53%{transform:scale(.65,1)}58.55%,59.22%{transform:scale(.7,1)}59.24%,60.97%{transform:scale(.75,1)}60.99%,63.4%{transform:scale(.8,1)}63.42%,66.54%{transform:scale(.85,1)}66.56%,70.02%{transform:scale(.9,1)}70.04%,70.37%{transform:scale(.95,1)}70.39%,to{transform:scale(1,1)}}@keyframes u2{70.72%{transform:scale(0,1)}70.74%,81.52%{transform:scale(.17,1)}81.54%,87.1%{transform:scale(.33,1)}87.12%,88.14%{transform:scale(.5,1)}88.16%,88.84%{transform:scale(.67,1)}88.86%,89.89%{transform:scale(.83,1)}89.91%,to{transform:scale(1,1)}}@keyframes u3{91.63%{transform:scale(0,1)}91.65%,93.37%{transform:scale(.33,1)}93.39%,94.42%{transform:scale(.67,1)}94.44%,to{transform:scale(1,1)}}@keyframes s0{0%,99.65%{transform:translate(0,-16px)}.35%{transform:translate(0,0)}.7%{transform:translate(16px,0)}1.05%{transform:translate(16px,16px)}1.74%{transform:translate(48px,16px)}2.09%,97.56%{transform:translate(48px,32px)}2.44%{transform:translate(32px,32px)}3.14%,50.52%{transform:translate(32px,64px)}3.83%{transform:translate(0,64px)}4.18%,5.57%{transform:translate(0,80px)}4.53%,5.92%{transform:translate(16px,80px)}4.88%,6.27%{transform:translate(16px,96px)}5.23%{transform:translate(0,96px)}8.36%{transform:translate(112px,96px)}10.1%,8.71%{transform:translate(112px,80px)}10.45%,9.06%{transform:translate(128px,80px)}10.8%,9.41%{transform:translate(128px,64px)}42.51%,9.76%{transform:translate(112px,64px)}11.15%{transform:translate(144px,64px)}11.5%,93.73%{transform:translate(144px,48px)}11.85%{transform:translate(160px,48px)}12.2%{transform:translate(160px,32px)}12.89%{transform:translate(128px,32px)}13.59%{transform:translate(128px,0)}14.98%{transform:translate(192px,0)}16.03%{transform:translate(192px,48px)}17.42%{transform:translate(256px,48px)}17.77%{transform:translate(256px,32px)}18.82%{transform:translate(304px,32px)}20.21%{transform:translate(304px,96px)}20.56%{transform:translate(288px,96px)}21.95%{transform:translate(288px,32px)}23%{transform:translate(240px,32px)}23.34%{transform:translate(240px,48px)}27.18%{transform:translate(416px,48px)}27.53%{transform:translate(416px,64px)}28.22%{transform:translate(448px,64px)}28.57%{transform:translate(448px,80px)}30.31%{transform:translate(528px,80px)}31.71%{transform:translate(528px,16px)}33.45%{transform:translate(448px,16px)}33.8%{transform:translate(448px,0)}34.15%{transform:translate(432px,0)}34.84%{transform:translate(432px,32px)}36.59%{transform:translate(352px,32px)}36.93%{transform:translate(352px,48px)}37.28%{transform:translate(336px,48px)}37.63%{transform:translate(336px,64px)}42.86%{transform:translate(112px,48px)}43.21%{transform:translate(96px,48px)}43.55%,45.64%,96.52%{transform:translate(96px,32px)}43.9%,88.5%{transform:translate(80px,32px)}44.25%,89.55%{transform:translate(80px,16px)}44.95%,47.04%{transform:translate(112px,16px)}45.3%{transform:translate(112px,32px)}46.34%{transform:translate(96px,0)}46.69%{transform:translate(112px,0)}47.39%{transform:translate(96px,16px)}48.43%,86.76%{transform:translate(96px,64px)}49.48%{transform:translate(48px,64px)}49.83%{transform:translate(48px,80px)}50.17%{transform:translate(32px,80px)}54.36%{transform:translate(208px,64px)}54.7%{transform:translate(208px,80px)}55.05%{transform:translate(224px,80px)}56.1%{transform:translate(224px,32px)}56.45%{transform:translate(208px,32px)}56.79%{transform:translate(208px,16px)}59.93%{transform:translate(352px,16px)}60.98%{transform:translate(352px,64px)}69.69%{transform:translate(752px,64px)}70.03%{transform:translate(752px,48px)}70.38%{transform:translate(768px,48px)}70.73%{transform:translate(768px,32px)}80.49%{transform:translate(320px,32px)}81.53%{transform:translate(320px,80px)}81.88%{transform:translate(304px,80px)}82.23%{transform:translate(304px,64px)}87.11%,95.47%{transform:translate(96px,80px)}87.46%{transform:translate(80px,80px)}88.85%{transform:translate(64px,32px)}89.2%{transform:translate(64px,16px)}89.9%{transform:translate(80px,0)}90.59%{transform:translate(48px,0)}91.64%{transform:translate(48px,48px)}94.43%{transform:translate(144px,80px)}98.61%{transform:translate(48px,-16px)}}@keyframes s1{0%,99.65%{transform:translate(16px,-16px)}.35%{transform:translate(0,-16px)}.7%{transform:translate(0,0)}1.05%{transform:translate(16px,0)}1.39%{transform:translate(16px,16px)}2.09%{transform:translate(48px,16px)}2.44%,97.91%{transform:translate(48px,32px)}2.79%{transform:translate(32px,32px)}3.48%,50.87%{transform:translate(32px,64px)}4.18%{transform:translate(0,64px)}4.53%,5.92%{transform:translate(0,80px)}4.88%,6.27%{transform:translate(16px,80px)}5.23%,6.62%{transform:translate(16px,96px)}5.57%{transform:translate(0,96px)}8.71%{transform:translate(112px,96px)}10.45%,9.06%{transform:translate(112px,80px)}10.8%,9.41%{transform:translate(128px,80px)}11.15%,9.76%{transform:translate(128px,64px)}10.1%,42.86%{transform:translate(112px,64px)}11.5%{transform:translate(144px,64px)}11.85%,94.08%{transform:translate(144px,48px)}12.2%{transform:translate(160px,48px)}12.54%{transform:translate(160px,32px)}13.24%{transform:translate(128px,32px)}13.94%{transform:translate(128px,0)}15.33%{transform:translate(192px,0)}16.38%{transform:translate(192px,48px)}17.77%{transform:translate(256px,48px)}18.12%{transform:translate(256px,32px)}19.16%{transform:translate(304px,32px)}20.56%{transform:translate(304px,96px)}20.91%{transform:translate(288px,96px)}22.3%{transform:translate(288px,32px)}23.34%{transform:translate(240px,32px)}23.69%{transform:translate(240px,48px)}27.53%{transform:translate(416px,48px)}27.87%{transform:translate(416px,64px)}28.57%{transform:translate(448px,64px)}28.92%{transform:translate(448px,80px)}30.66%{transform:translate(528px,80px)}32.06%{transform:translate(528px,16px)}33.8%{transform:translate(448px,16px)}34.15%{transform:translate(448px,0)}34.49%{transform:translate(432px,0)}35.19%{transform:translate(432px,32px)}36.93%{transform:translate(352px,32px)}37.28%{transform:translate(352px,48px)}37.63%{transform:translate(336px,48px)}37.98%{transform:translate(336px,64px)}43.21%{transform:translate(112px,48px)}43.55%{transform:translate(96px,48px)}43.9%,45.99%,96.86%{transform:translate(96px,32px)}44.25%,88.85%{transform:translate(80px,32px)}44.6%,89.9%{transform:translate(80px,16px)}45.3%,47.39%{transform:translate(112px,16px)}45.64%{transform:translate(112px,32px)}46.69%{transform:translate(96px,0)}47.04%{transform:translate(112px,0)}47.74%{transform:translate(96px,16px)}48.78%,87.11%{transform:translate(96px,64px)}49.83%{transform:translate(48px,64px)}50.17%{transform:translate(48px,80px)}50.52%{transform:translate(32px,80px)}54.7%{transform:translate(208px,64px)}55.05%{transform:translate(208px,80px)}55.4%{transform:translate(224px,80px)}56.45%{transform:translate(224px,32px)}56.79%{transform:translate(208px,32px)}57.14%{transform:translate(208px,16px)}60.28%{transform:translate(352px,16px)}61.32%{transform:translate(352px,64px)}70.03%{transform:translate(752px,64px)}70.38%{transform:translate(752px,48px)}70.73%{transform:translate(768px,48px)}71.08%{transform:translate(768px,32px)}80.84%{transform:translate(320px,32px)}81.88%{transform:translate(320px,80px)}82.23%{transform:translate(304px,80px)}82.58%{transform:translate(304px,64px)}87.46%,95.82%{transform:translate(96px,80px)}87.8%{transform:translate(80px,80px)}89.2%{transform:translate(64px,32px)}89.55%{transform:translate(64px,16px)}90.24%{transform:translate(80px,0)}90.94%{transform:translate(48px,0)}91.99%{transform:translate(48px,48px)}94.77%{transform:translate(144px,80px)}98.95%{transform:translate(48px,-16px)}}@keyframes s2{0%,99.65%{transform:translate(32px,-16px)}.7%{transform:translate(0,-16px)}1.05%{transform:translate(0,0)}1.39%{transform:translate(16px,0)}1.74%{transform:translate(16px,16px)}2.44%{transform:translate(48px,16px)}2.79%,98.26%{transform:translate(48px,32px)}3.14%{transform:translate(32px,32px)}3.83%,51.22%{transform:translate(32px,64px)}4.53%{transform:translate(0,64px)}4.88%,6.27%{transform:translate(0,80px)}5.23%,6.62%{transform:translate(16px,80px)}5.57%,6.97%{transform:translate(16px,96px)}5.92%{transform:translate(0,96px)}9.06%{transform:translate(112px,96px)}10.8%,9.41%{transform:translate(112px,80px)}11.15%,9.76%{transform:translate(128px,80px)}10.1%,11.5%{transform:translate(128px,64px)}10.45%,43.21%{transform:translate(112px,64px)}11.85%{transform:translate(144px,64px)}12.2%,94.43%{transform:translate(144px,48px)}12.54%{transform:translate(160px,48px)}12.89%{transform:translate(160px,32px)}13.59%{transform:translate(128px,32px)}14.29%{transform:translate(128px,0)}15.68%{transform:translate(192px,0)}16.72%{transform:translate(192px,48px)}18.12%{transform:translate(256px,48px)}18.47%{transform:translate(256px,32px)}19.51%{transform:translate(304px,32px)}20.91%{transform:translate(304px,96px)}21.25%{transform:translate(288px,96px)}22.65%{transform:translate(288px,32px)}23.69%{transform:translate(240px,32px)}24.04%{transform:translate(240px,48px)}27.87%{transform:translate(416px,48px)}28.22%{transform:translate(416px,64px)}28.92%{transform:translate(448px,64px)}29.27%{transform:translate(448px,80px)}31.01%{transform:translate(528px,80px)}32.4%{transform:translate(528px,16px)}34.15%{transform:translate(448px,16px)}34.49%{transform:translate(448px,0)}34.84%{transform:translate(432px,0)}35.54%{transform:translate(432px,32px)}37.28%{transform:translate(352px,32px)}37.63%{transform:translate(352px,48px)}37.98%{transform:translate(336px,48px)}38.33%{transform:translate(336px,64px)}43.55%{transform:translate(112px,48px)}43.9%{transform:translate(96px,48px)}44.25%,46.34%,97.21%{transform:translate(96px,32px)}44.6%,89.2%{transform:translate(80px,32px)}44.95%,90.24%{transform:translate(80px,16px)}45.64%,47.74%{transform:translate(112px,16px)}45.99%{transform:translate(112px,32px)}47.04%{transform:translate(96px,0)}47.39%{transform:translate(112px,0)}48.08%{transform:translate(96px,16px)}49.13%,87.46%{transform:translate(96px,64px)}50.17%{transform:translate(48px,64px)}50.52%{transform:translate(48px,80px)}50.87%{transform:translate(32px,80px)}55.05%{transform:translate(208px,64px)}55.4%{transform:translate(208px,80px)}55.75%{transform:translate(224px,80px)}56.79%{transform:translate(224px,32px)}57.14%{transform:translate(208px,32px)}57.49%{transform:translate(208px,16px)}60.63%{transform:translate(352px,16px)}61.67%{transform:translate(352px,64px)}70.38%{transform:translate(752px,64px)}70.73%{transform:translate(752px,48px)}71.08%{transform:translate(768px,48px)}71.43%{transform:translate(768px,32px)}81.18%{transform:translate(320px,32px)}82.23%{transform:translate(320px,80px)}82.58%{transform:translate(304px,80px)}82.93%{transform:translate(304px,64px)}87.8%,96.17%{transform:translate(96px,80px)}88.15%{transform:translate(80px,80px)}89.55%{transform:translate(64px,32px)}89.9%{transform:translate(64px,16px)}90.59%{transform:translate(80px,0)}91.29%{transform:translate(48px,0)}92.33%{transform:translate(48px,48px)}95.12%{transform:translate(144px,80px)}99.3%{transform:translate(48px,-16px)}}@keyframes s3{0%,99.65%{transform:translate(48px,-16px)}1.05%{transform:translate(0,-16px)}1.39%{transform:translate(0,0)}1.74%{transform:translate(16px,0)}2.09%{transform:translate(16px,16px)}2.79%{transform:translate(48px,16px)}3.14%,98.61%{transform:translate(48px,32px)}3.48%{transform:translate(32px,32px)}4.18%,51.57%{transform:translate(32px,64px)}4.88%{transform:translate(0,64px)}5.23%,6.62%{transform:translate(0,80px)}5.57%,6.97%{transform:translate(16px,80px)}5.92%,7.32%{transform:translate(16px,96px)}6.27%{transform:translate(0,96px)}9.41%{transform:translate(112px,96px)}11.15%,9.76%{transform:translate(112px,80px)}10.1%,11.5%{transform:translate(128px,80px)}10.45%,11.85%{transform:translate(128px,64px)}10.8%,43.55%{transform:translate(112px,64px)}12.2%{transform:translate(144px,64px)}12.54%,94.77%{transform:translate(144px,48px)}12.89%{transform:translate(160px,48px)}13.24%{transform:translate(160px,32px)}13.94%{transform:translate(128px,32px)}14.63%{transform:translate(128px,0)}16.03%{transform:translate(192px,0)}17.07%{transform:translate(192px,48px)}18.47%{transform:translate(256px,48px)}18.82%{transform:translate(256px,32px)}19.86%{transform:translate(304px,32px)}21.25%{transform:translate(304px,96px)}21.6%{transform:translate(288px,96px)}23%{transform:translate(288px,32px)}24.04%{transform:translate(240px,32px)}24.39%{transform:translate(240px,48px)}28.22%{transform:translate(416px,48px)}28.57%{transform:translate(416px,64px)}29.27%{transform:translate(448px,64px)}29.62%{transform:translate(448px,80px)}31.36%{transform:translate(528px,80px)}32.75%{transform:translate(528px,16px)}34.49%{transform:translate(448px,16px)}34.84%{transform:translate(448px,0)}35.19%{transform:translate(432px,0)}35.89%{transform:translate(432px,32px)}37.63%{transform:translate(352px,32px)}37.98%{transform:translate(352px,48px)}38.33%{transform:translate(336px,48px)}38.68%{transform:translate(336px,64px)}43.9%{transform:translate(112px,48px)}44.25%{transform:translate(96px,48px)}44.6%,46.69%,97.56%{transform:translate(96px,32px)}44.95%,89.55%{transform:translate(80px,32px)}45.3%,90.59%{transform:translate(80px,16px)}45.99%,48.08%{transform:translate(112px,16px)}46.34%{transform:translate(112px,32px)}47.39%{transform:translate(96px,0)}47.74%{transform:translate(112px,0)}48.43%{transform:translate(96px,16px)}49.48%,87.8%{transform:translate(96px,64px)}50.52%{transform:translate(48px,64px)}50.87%{transform:translate(48px,80px)}51.22%{transform:translate(32px,80px)}55.4%{transform:translate(208px,64px)}55.75%{transform:translate(208px,80px)}56.1%{transform:translate(224px,80px)}57.14%{transform:translate(224px,32px)}57.49%{transform:translate(208px,32px)}57.84%{transform:translate(208px,16px)}60.98%{transform:translate(352px,16px)}62.02%{transform:translate(352px,64px)}70.73%{transform:translate(752px,64px)}71.08%{transform:translate(752px,48px)}71.43%{transform:translate(768px,48px)}71.78%{transform:translate(768px,32px)}81.53%{transform:translate(320px,32px)}82.58%{transform:translate(320px,80px)}82.93%{transform:translate(304px,80px)}83.28%{transform:translate(304px,64px)}88.15%,96.52%{transform:translate(96px,80px)}88.5%{transform:translate(80px,80px)}89.9%{transform:translate(64px,32px)}90.24%{transform:translate(64px,16px)}90.94%{transform:translate(80px,0)}91.64%{transform:translate(48px,0)}92.68%{transform:translate(48px,48px)}95.47%{transform:translate(144px,80px)}}:root{--cb:#1b1f230a;--cs:purple;--ce:#ebedf0;--c0:#ebedf0;--c1:#9be9a8;--c2:#40c463;--c3:#30a14e;--c4:#216e39}@media (prefers-color-scheme:dark){:root{--cb:#1b1f230a;--cs:purple;--ce:#161b22;--c1:#01311f;--c2:#034525;--c3:#0f6d31;--c4:#00c647}}.c{shape-rendering:geometricPrecision;fill:var(--ce);stroke-width:1px;stroke:var(--cb);animation:none 28700ms linear infinite}.c.c0,.c.c1{fill:var(--c1);animation-name:c0}.c.c1{animation-name:c1}.c.c2,.c.c3,.c.c4{fill:var(--c1);animation-name:c2}.c.c3,.c.c4{animation-name:c3}.c.c4{animation-name:c4}.c.c5{fill:var(--c2);animation-name:c5}.c.c6{fill:var(--c1);animation-name:c6}.c.c7{fill:var(--c4);animation-name:c7}.c.c8,.c.c9{fill:var(--c2);animation-name:c8}.c.c9{animation-name:c9}.c.ca{fill:var(--c3);animation-name:ca}.c.cb{fill:var(--c2);animation-name:cb}.c.cc{fill:var(--c3);animation-name:cc}.c.cd{fill:var(--c2);animation-name:cd}.c.ce{fill:var(--c1);animation-name:ce}.c.cf{fill:var(--c3);animation-name:cf}.c.cg,.c.ch,.c.ci{fill:var(--c2);animation-name:cg}.c.ch,.c.ci{animation-name:ch}.c.ci{animation-name:ci}.c.cj{fill:var(--c3);animation-name:cj}.c.ck,.c.cl{fill:var(--c2);animation-name:ck}.c.cl{animation-name:cl}.c.cm,.c.cn{fill:var(--c1);animation-name:cm}.c.cn{animation-name:cn}.c.co,.c.cp,.c.cq{fill:var(--c1);animation-name:co}.c.cp,.c.cq{animation-name:cp}.c.cq{animation-name:cq}.c.cr{fill:var(--c4);animation-name:cr}.c.cs{fill:var(--c1);animation-name:cs}.c.ct,.c.cu,.c.cv{fill:var(--c1);animation-name:ct}.c.cu,.c.cv{animation-name:cu}.c.cv{animation-name:cv}.c.cw{fill:var(--c4);animation-name:cw}.c.cx,.c.cy,.c.cz{fill:var(--c1);animation-name:cx}.c.cy,.c.cz{animation-name:cy}.c.cz{animation-name:cz}.c.c10,.c.c11{fill:var(--c2);animation-name:c10}.c.c11{animation-name:c11}.c.c12{fill:var(--c1);animation-name:c12}.c.c13{fill:var(--c2);animation-name:c13}.c.c14{fill:var(--c1);animation-name:c14}.c.c15,.c.c16,.c.c17{fill:var(--c1);animation-name:c15}.c.c16,.c.c17{animation-name:c16}.c.c17{animation-name:c17}.c.c18{fill:var(--c2);animation-name:c18}.c.c19,.c.c1a,.c.c1b{fill:var(--c1);animation-name:c19}.c.c1a,.c.c1b{animation-name:c1a}.c.c1b{animation-name:c1b}.c.c1c{fill:var(--c2);animation-name:c1c}.c.c1d{fill:var(--c3);animation-name:c1d}.c.c1e{fill:var(--c2);animation-name:c1e}.c.c1f,.c.c1g,.c.c1h{fill:var(--c1);animation-name:c1f}.c.c1g,.c.c1h{animation-name:c1g}.c.c1h{animation-name:c1h}.c.c1i{fill:var(--c2);animation-name:c1i}.c.c1j,.c.c1k{fill:var(--c1);animation-name:c1j}.c.c1k{animation-name:c1k}.c.c1l,.c.c1m{fill:var(--c2);animation-name:c1l}.c.c1m{animation-name:c1m}.c.c1n{fill:var(--c3);animation-name:c1n}.c.c1o{fill:var(--c2);animation-name:c1o}.s,.u{animation:none linear 28700ms infinite}.u,.u.u0{transform-origin:0 0}.u{transform:scale(0,1)}.u.u0{fill:var(--c1);animation-name:u0}.u.u1{fill:var(--c2);animation-name:u1;transform-origin:444.9px 0}.u.u2{fill:var(--c3);animation-name:u2;transform-origin:722.9px 0}.u.u3{fill:var(--c4);animation-name:u3;transform-origin:806.3px 0}.s{shape-rendering:geometricPrecision;fill:var(--cs)}.s.s0{transform:translate(0,-16px);animation-name:s0}.s.s1{transform:translate(16px,-16px);animation-name:s1}.s.s2{transform:translate(32px,-16px);animation-name:s2}.s.s3{transform:translate(48px,-16px);animation-name:s3}</style><rect class="c" x="2" y="2" rx="2" ry="2" width="12" height="12"/><rect class="c" x="2" y="18" rx="2" ry="2" width="12" height="12"/><rect class="c" x="2" y="34" rx="2" ry="2" width="12" height="12"/><rect class="c" x="2" y="50" rx="2" ry="2" width="12" height="12"/><rect class="c c0" x="2" y="66" rx="2" ry="2" width="12" height="12"/><rect class="c" x="2" y="82" rx="2" ry="2" width="12" height="12"/><rect class="c c1" x="2" y="98" rx="2" ry="2" width="12" height="12"/><rect class="c" x="18" y="2" rx="2" ry="2" width="12" height="12"/><rect class="c c2" x="18" y="18" rx="2" ry="2" width="12" height="12"/><rect class="c" x="18" y="34" rx="2" ry="2" width="12" height="12"/><rect class="c" x="18" y="50" rx="2" ry="2" width="12" height="12"/><rect class="c" x="18" y="66" rx="2" ry="2" width="12" height="12"/><rect class="c c3" x="18" y="82" rx="2" ry="2" width="12" height="12"/><rect class="c" x="18" y="98" rx="2" ry="2" width="12" height="12"/><rect class="c" x="34" y="2" rx="2" ry="2" width="12" height="12"/><rect class="c" x="34" y="18" rx="2" ry="2" width="12" height="12"/><rect class="c" x="34" y="34" rx="2" ry="2" width="12" height="12"/><rect class="c" x="34" y="50" rx="2" ry="2" width="12" height="12"/><rect class="c c4" x="34" y="66" rx="2" ry="2" width="12" height="12"/><rect class="c c5" x="34" y="82" rx="2" ry="2" width="12" height="12"/><rect class="c" x="34" y="98" rx="2" ry="2" width="12" height="12"/><rect class="c" x="50" y="2" rx="2" ry="2" width="12" height="12"/><rect class="c" x="50" y="18" rx="2" ry="2" width="12" height="12"/><rect class="c c6" x="50" y="34" rx="2" ry="2" width="12" height="12"/><rect class="c c7" x="50" y="50" rx="2" ry="2" width="12" height="12"/><rect class="c c8" x="50" y="66" rx="2" ry="2" width="12" height="12"/><rect class="c c9" x="50" y="82" rx="2" ry="2" width="12" height="12"/><rect class="c" x="50" y="98" rx="2" ry="2" width="12" height="12"/><rect class="c" x="66" y="2" rx="2" ry="2" width="12" height="12"/><rect class="c" x="66" y="18" rx="2" ry="2" width="12" height="12"/><rect class="c ca" x="66" y="34" rx="2" ry="2" width="12" height="12"/><rect class="c" x="66" y="50" rx="2" ry="2" width="12" height="12"/><rect class="c cb" x="66" y="66" rx="2" ry="2" width="12" height="12"/><rect class="c" x="66" y="82" rx="2" ry="2" width="12" height="12"/><rect class="c" x="66" y="98" rx="2" ry="2" width="12" height="12"/><rect class="c cc" x="82" y="2" rx="2" ry="2" width="12" height="12"/><rect class="c cd" x="82" y="18" rx="2" ry="2" width="12" height="12"/><rect class="c ce" x="82" y="34" rx="2" ry="2" width="12" height="12"/><rect class="c cf" x="82" y="50" rx="2" ry="2" width="12" height="12"/><rect class="c cg" x="82" y="66" rx="2" ry="2" width="12" height="12"/><rect class="c" x="82" y="82" rx="2" ry="2" width="12" height="12"/><rect class="c" x="82" y="98" rx="2" ry="2" width="12" height="12"/><rect class="c ch" x="98" y="2" rx="2" ry="2" width="12" height="12"/><rect class="c" x="98" y="18" rx="2" ry="2" width="12" height="12"/><rect class="c" x="98" y="34" rx="2" ry="2" width="12" height="12"/><rect class="c" x="98" y="50" rx="2" ry="2" width="12" height="12"/><rect class="c ci" x="98" y="66" rx="2" ry="2" width="12" height="12"/><rect class="c cj" x="98" y="82" rx="2" ry="2" width="12" height="12"/><rect class="c" x="98" y="98" rx="2" ry="2" width="12" height="12"/><rect class="c" x="114" y="2" rx="2" ry="2" width="12" height="12"/><rect class="c ck" x="114" y="18" rx="2" ry="2" width="12" height="12"/><rect class="c cl" x="114" y="34" rx="2" ry="2" width="12" height="12"/><rect class="c" x="114" y="50" rx="2" ry="2" width="12" height="12"/><rect class="c cm" x="114" y="66" rx="2" ry="2" width="12" height="12"/><rect class="c cn" x="114" y="82" rx="2" ry="2" width="12" height="12"/><rect class="c" x="114" y="98" rx="2" ry="2" width="12" height="12"/><rect class="c co" x="130" y="2" rx="2" ry="2" width="12" height="12"/><rect class="c cp" x="130" y="18" rx="2" ry="2" width="12" height="12"/><rect class="c cq" x="130" y="34" rx="2" ry="2" width="12" height="12"/><rect class="c cr" x="130" y="50" rx="2" ry="2" width="12" height="12"/><rect class="c" x="130" y="66" rx="2" ry="2" width="12" height="12"/><rect class="c cs" x="130" y="82" rx="2" ry="2" width="12" height="12"/><rect class="c" x="130" y="98" rx="2" ry="2" width="12" height="12"/><rect class="c ct" x="146" y="2" rx="2" ry="2" width="12" height="12"/><rect class="c" x="146" y="18" rx="2" ry="2" width="12" height="12"/><rect class="c cu" x="146" y="34" rx="2" ry="2" width="12" height="12"/><rect class="c cv" x="146" y="50" rx="2" ry="2" width="12" height="12"/><rect class="c" x="146" y="66" rx="2" ry="2" width="12" height="12"/><rect class="c cw" x="146" y="82" rx="2" ry="2" width="12" height="12"/><rect class="c" x="146" y="98" rx="2" ry="2" width="12" height="12"/><rect class="c cx" x="162" y="2" rx="2" ry="2" width="12" height="12"/><rect class="c" x="162" y="18" rx="2" ry="2" width="12" height="12"/><rect class="c" x="162" y="34" rx="2" ry="2" width="12" height="12"/><rect class="c cy" x="162" y="50" rx="2" ry="2" width="12" height="12"/><rect class="c" x="162" y="66" rx="2" ry="2" width="12" height="12"/><rect class="c" x="162" y="82" rx="2" ry="2" width="12" height="12"/><rect class="c" x="162" y="98" rx="2" ry="2" width="12" height="12"/><rect class="c" x="178" y="2" rx="2" ry="2" width="12" height="12"/><rect class="c" x="178" y="18" rx="2" ry="2" width="12" height="12"/><rect class="c" x="178" y="34" rx="2" ry="2" width="12" height="12"/><rect class="c" x="178" y="50" rx="2" ry="2" width="12" height="12"/><rect class="c" x="178" y="66" rx="2" ry="2" width="12" height="12"/><rect class="c" x="178" y="82" rx="2" ry="2" width="12" height="12"/><rect class="c" x="178" y="98" rx="2" ry="2" width="12" height="12"/><rect class="c" x="194" y="2" rx="2" ry="2" width="12" height="12"/><rect class="c" x="194" y="18" rx="2" ry="2" width="12" height="12"/><rect class="c cz" x="194" y="34" rx="2" ry="2" width="12" height="12"/><rect class="c" x="194" y="50" rx="2" ry="2" width="12" height="12"/><rect class="c" x="194" y="66" rx="2" ry="2" width="12" height="12"/><rect class="c" x="194" y="82" rx="2" ry="2" width="12" height="12"/><rect class="c" x="194" y="98" rx="2" ry="2" width="12" height="12"/><rect class="c" x="210" y="2" rx="2" ry="2" width="12" height="12"/><rect class="c" x="210" y="18" rx="2" ry="2" width="12" height="12"/><rect class="c c10" x="210" y="34" rx="2" ry="2" width="12" height="12"/><rect class="c" x="210" y="50" rx="2" ry="2" width="12" height="12"/><rect class="c" x="210" y="66" rx="2" ry="2" width="12" height="12"/><rect class="c c11" x="210" y="82" rx="2" ry="2" width="12" height="12"/><rect class="c" x="210" y="98" rx="2" ry="2" width="12" height="12"/><rect class="c" x="226" y="2" rx="2" ry="2" width="12" height="12"/><rect class="c" x="226" y="18" rx="2" ry="2" width="12" height="12"/><rect class="c" x="226" y="34" rx="2" ry="2" width="12" height="12"/><rect class="c c12" x="226" y="50" rx="2" ry="2" width="12" height="12"/><rect class="c" x="226" y="66" rx="2" ry="2" width="12" height="12"/><rect class="c c13" x="226" y="82" rx="2" ry="2" width="12" height="12"/><rect class="c" x="226" y="98" rx="2" ry="2" width="12" height="12"/><rect class="c" x="242" y="2" rx="2" ry="2" width="12" height="12"/><rect class="c" x="242" y="18" rx="2" ry="2" width="12" height="12"/><rect class="c c14" x="242" y="34" rx="2" ry="2" width="12" height="12"/><rect class="c" x="242" y="50" rx="2" ry="2" width="12" height="12"/><rect class="c" x="242" y="66" rx="2" ry="2" width="12" height="12"/><rect class="c" x="242" y="82" rx="2" ry="2" width="12" height="12"/><rect class="c" x="242" y="98" rx="2" ry="2" width="12" height="12"/><rect class="c" x="258" y="2" rx="2" ry="2" width="12" height="12"/><rect class="c" x="258" y="18" rx="2" ry="2" width="12" height="12"/><rect class="c c15" x="258" y="34" rx="2" ry="2" width="12" height="12"/><rect class="c c16" x="258" y="50" rx="2" ry="2" width="12" height="12"/><rect class="c" x="258" y="66" rx="2" ry="2" width="12" height="12"/><rect class="c" x="258" y="82" rx="2" ry="2" width="12" height="12"/><rect class="c" x="258" y="98" rx="2" ry="2" width="12" height="12"/><rect class="c" x="274" y="2" rx="2" ry="2" width="12" height="12"/><rect class="c" x="274" y="18" rx="2" ry="2" width="12" height="12"/><rect class="c c17" x="274" y="34" rx="2" ry="2" width="12" height="12"/><rect class="c" x="274" y="50" rx="2" ry="2" width="12" height="12"/><rect class="c" x="274" y="66" rx="2" ry="2" width="12" height="12"/><rect class="c" x="274" y="82" rx="2" ry="2" width="12" height="12"/><rect class="c" x="274" y="98" rx="2" ry="2" width="12" height="12"/><rect class="c" x="290" y="2" rx="2" ry="2" width="12" height="12"/><rect class="c c18" x="290" y="18" rx="2" ry="2" width="12" height="12"/><rect class="c" x="290" y="34" rx="2" ry="2" width="12" height="12"/><rect class="c" x="290" y="50" rx="2" ry="2" width="12" height="12"/><rect class="c" x="290" y="66" rx="2" ry="2" width="12" height="12"/><rect class="c" x="290" y="82" rx="2" ry="2" width="12" height="12"/><rect class="c" x="290" y="98" rx="2" ry="2" width="12" height="12"/><rect class="c" x="306" y="2" rx="2" ry="2" width="12" height="12"/><rect class="c" x="306" y="18" rx="2" ry="2" width="12" height="12"/><rect class="c c19" x="306" y="34" rx="2" ry="2" width="12" height="12"/><rect class="c" x="306" y="50" rx="2" ry="2" width="12" height="12"/><rect class="c" x="306" y="66" rx="2" ry="2" width="12" height="12"/><rect class="c c1a" x="306" y="82" rx="2" ry="2" width="12" height="12"/><rect class="c c1b" x="306" y="98" rx="2" ry="2" width="12" height="12"/><rect class="c" x="322" y="2" rx="2" ry="2" width="12" height="12"/><rect class="c c1c" x="322" y="18" rx="2" ry="2" width="12" height="12"/><rect class="c" x="322" y="34" rx="2" ry="2" width="12" height="12"/><rect class="c" x="322" y="50" rx="2" ry="2" width="12" height="12"/><rect class="c" x="322" y="66" rx="2" ry="2" width="12" height="12"/><rect class="c c1d" x="322" y="82" rx="2" ry="2" width="12" height="12"/><rect class="c" x="322" y="98" rx="2" ry="2" width="12" height="12"/><rect class="c" x="338" y="2" rx="2" ry="2" width="12" height="12"/><rect class="c" x="338" y="18" rx="2" ry="2" width="12" height="12"/><rect class="c" x="338" y="34" rx="2" ry="2" width="12" height="12"/><rect class="c" x="338" y="50" rx="2" ry="2" width="12" height="12"/><rect class="c" x="338" y="66" rx="2" ry="2" width="12" height="12"/><rect class="c" x="338" y="82" rx="2" ry="2" width="12" height="12"/><rect class="c" x="338" y="98" rx="2" ry="2" width="12" height="12"/><rect class="c" x="354" y="2" rx="2" ry="2" width="12" height="12"/><rect class="c" x="354" y="18" rx="2" ry="2" width="12" height="12"/><rect class="c" x="354" y="34" rx="2" ry="2" width="12" height="12"/><rect class="c" x="354" y="50" rx="2" ry="2" width="12" height="12"/><rect class="c c1e" x="354" y="66" rx="2" ry="2" width="12" height="12"/><rect class="c" x="354" y="82" rx="2" ry="2" width="12" height="12"/><rect class="c" x="354" y="98" rx="2" ry="2" width="12" height="12"/><rect class="c" x="370" y="2" rx="2" ry="2" width="12" height="12"/><rect class="c" x="370" y="18" rx="2" ry="2" width="12" height="12"/><rect class="c" x="370" y="34" rx="2" ry="2" width="12" height="12"/><rect class="c" x="370" y="50" rx="2" ry="2" width="12" height="12"/><rect class="c" x="370" y="66" rx="2" ry="2" width="12" height="12"/><rect class="c" x="370" y="82" rx="2" ry="2" width="12" height="12"/><rect class="c" x="370" y="98" rx="2" ry="2" width="12" height="12"/><rect class="c" x="386" y="2" rx="2" ry="2" width="12" height="12"/><rect class="c" x="386" y="18" rx="2" ry="2" width="12" height="12"/><rect class="c" x="386" y="34" rx="2" ry="2" width="12" height="12"/><rect class="c" x="386" y="50" rx="2" ry="2" width="12" height="12"/><rect class="c" x="386" y="66" rx="2" ry="2" width="12" height="12"/><rect class="c" x="386" y="82" rx="2" ry="2" width="12" height="12"/><rect class="c" x="386" y="98" rx="2" ry="2" width="12" height="12"/><rect class="c" x="402" y="2" rx="2" ry="2" width="12" height="12"/><rect class="c" x="402" y="18" rx="2" ry="2" width="12" height="12"/><rect class="c" x="402" y="34" rx="2" ry="2" width="12" height="12"/><rect class="c" x="402" y="50" rx="2" ry="2" width="12" height="12"/><rect class="c" x="402" y="66" rx="2" ry="2" width="12" height="12"/><rect class="c" x="402" y="82" rx="2" ry="2" width="12" height="12"/><rect class="c" x="402" y="98" rx="2" ry="2" width="12" height="12"/><rect class="c" x="418" y="2" rx="2" ry="2" width="12" height="12"/><rect class="c" x="418" y="18" rx="2" ry="2" width="12" height="12"/><rect class="c" x="418" y="34" rx="2" ry="2" width="12" height="12"/><rect class="c" x="418" y="50" rx="2" ry="2" width="12" height="12"/><rect class="c c1f" x="418" y="66" rx="2" ry="2" width="12" height="12"/><rect class="c" x="418" y="82" rx="2" ry="2" width="12" height="12"/><rect class="c" x="418" y="98" rx="2" ry="2" width="12" height="12"/><rect class="c" x="434" y="2" rx="2" ry="2" width="12" height="12"/><rect class="c" x="434" y="18" rx="2" ry="2" width="12" height="12"/><rect class="c" x="434" y="34" rx="2" ry="2" width="12" height="12"/><rect class="c" x="434" y="50" rx="2" ry="2" width="12" height="12"/><rect class="c" x="434" y="66" rx="2" ry="2" width="12" height="12"/><rect class="c" x="434" y="82" rx="2" ry="2" width="12" height="12"/><rect class="c" x="434" y="98" rx="2" ry="2" width="12" height="12"/><rect class="c c1g" x="450" y="2" rx="2" ry="2" width="12" height="12"/><rect class="c c1h" x="450" y="18" rx="2" ry="2" width="12" height="12"/><rect class="c" x="450" y="34" rx="2" ry="2" width="12" height="12"/><rect class="c" x="450" y="50" rx="2" ry="2" width="12" height="12"/><rect class="c" x="450" y="66" rx="2" ry="2" width="12" height="12"/><rect class="c" x="450" y="82" rx="2" ry="2" width="12" height="12"/><rect class="c" x="450" y="98" rx="2" ry="2" width="12" height="12"/><rect class="c" x="466" y="2" rx="2" ry="2" width="12" height="12"/><rect class="c" x="466" y="18" rx="2" ry="2" width="12" height="12"/><rect class="c" x="466" y="34" rx="2" ry="2" width="12" height="12"/><rect class="c" x="466" y="50" rx="2" ry="2" width="12" height="12"/><rect class="c c1i" x="466" y="66" rx="2" ry="2" width="12" height="12"/><rect class="c c1j" x="466" y="82" rx="2" ry="2" width="12" height="12"/><rect class="c" x="466" y="98" rx="2" ry="2" width="12" height="12"/><rect class="c" x="482" y="2" rx="2" ry="2" width="12" height="12"/><rect class="c" x="482" y="18" rx="2" ry="2" width="12" height="12"/><rect class="c" x="482" y="34" rx="2" ry="2" width="12" height="12"/><rect class="c" x="482" y="50" rx="2" ry="2" width="12" height="12"/><rect class="c" x="482" y="66" rx="2" ry="2" width="12" height="12"/><rect class="c" x="482" y="82" rx="2" ry="2" width="12" height="12"/><rect class="c" x="482" y="98" rx="2" ry="2" width="12" height="12"/><rect class="c" x="498" y="2" rx="2" ry="2" width="12" height="12"/><rect class="c" x="498" y="18" rx="2" ry="2" width="12" height="12"/><rect class="c" x="498" y="34" rx="2" ry="2" width="12" height="12"/><rect class="c" x="498" y="50" rx="2" ry="2" width="12" height="12"/><rect class="c" x="498" y="66" rx="2" ry="2" width="12" height="12"/><rect class="c" x="498" y="82" rx="2" ry="2" width="12" height="12"/><rect class="c" x="498" y="98" rx="2" ry="2" width="12" height="12"/><rect class="c" x="514" y="2" rx="2" ry="2" width="12" height="12"/><rect class="c" x="514" y="18" rx="2" ry="2" width="12" height="12"/><rect class="c" x="514" y="34" rx="2" ry="2" width="12" height="12"/><rect class="c" x="514" y="50" rx="2" ry="2" width="12" height="12"/><rect class="c" x="514" y="66" rx="2" ry="2" width="12" height="12"/><rect class="c" x="514" y="82" rx="2" ry="2" width="12" height="12"/><rect class="c" x="514" y="98" rx="2" ry="2" width="12" height="12"/><rect class="c" x="530" y="2" rx="2" ry="2" width="12" height="12"/><rect class="c" x="530" y="18" rx="2" ry="2" width="12" height="12"/><rect class="c" x="530" y="34" rx="2" ry="2" width="12" height="12"/><rect class="c c1k" x="530" y="50" rx="2" ry="2" width="12" height="12"/><rect class="c" x="530" y="66" rx="2" ry="2" width="12" height="12"/><rect class="c" x="530" y="82" rx="2" ry="2" width="12" height="12"/><rect class="c" x="530" y="98" rx="2" ry="2" width="12" height="12"/><rect class="c" x="546" y="2" rx="2" ry="2" width="12" height="12"/><rect class="c" x="546" y="18" rx="2" ry="2" width="12" height="12"/><rect class="c" x="546" y="34" rx="2" ry="2" width="12" height="12"/><rect class="c" x="546" y="50" rx="2" ry="2" width="12" height="12"/><rect class="c" x="546" y="66" rx="2" ry="2" width="12" height="12"/><rect class="c" x="546" y="82" rx="2" ry="2" width="12" height="12"/><rect class="c" x="546" y="98" rx="2" ry="2" width="12" height="12"/><rect class="c" x="562" y="2" rx="2" ry="2" width="12" height="12"/><rect class="c" x="562" y="18" rx="2" ry="2" width="12" height="12"/><rect class="c" x="562" y="34" rx="2" ry="2" width="12" height="12"/><rect class="c" x="562" y="50" rx="2" ry="2" width="12" height="12"/><rect class="c" x="562" y="66" rx="2" ry="2" width="12" height="12"/><rect class="c" x="562" y="82" rx="2" ry="2" width="12" height="12"/><rect class="c" x="562" y="98" rx="2" ry="2" width="12" height="12"/><rect class="c" x="578" y="2" rx="2" ry="2" width="12" height="12"/><rect class="c" x="578" y="18" rx="2" ry="2" width="12" height="12"/><rect class="c" x="578" y="34" rx="2" ry="2" width="12" height="12"/><rect class="c" x="578" y="50" rx="2" ry="2" width="12" height="12"/><rect class="c" x="578" y="66" rx="2" ry="2" width="12" height="12"/><rect class="c" x="578" y="82" rx="2" ry="2" width="12" height="12"/><rect class="c" x="578" y="98" rx="2" ry="2" width="12" height="12"/><rect class="c" x="594" y="2" rx="2" ry="2" width="12" height="12"/><rect class="c" x="594" y="18" rx="2" ry="2" width="12" height="12"/><rect class="c" x="594" y="34" rx="2" ry="2" width="12" height="12"/><rect class="c" x="594" y="50" rx="2" ry="2" width="12" height="12"/><rect class="c" x="594" y="66" rx="2" ry="2" width="12" height="12"/><rect class="c" x="594" y="82" rx="2" ry="2" width="12" height="12"/><rect class="c" x="594" y="98" rx="2" ry="2" width="12" height="12"/><rect class="c" x="610" y="2" rx="2" ry="2" width="12" height="12"/><rect class="c" x="610" y="18" rx="2" ry="2" width="12" height="12"/><rect class="c" x="610" y="34" rx="2" ry="2" width="12" height="12"/><rect class="c" x="610" y="50" rx="2" ry="2" width="12" height="12"/><rect class="c c1l" x="610" y="66" rx="2" ry="2" width="12" height="12"/><rect class="c" x="610" y="82" rx="2" ry="2" width="12" height="12"/><rect class="c" x="610" y="98" rx="2" ry="2" width="12" height="12"/><rect class="c" x="626" y="2" rx="2" ry="2" width="12" height="12"/><rect class="c" x="626" y="18" rx="2" ry="2" width="12" height="12"/><rect class="c" x="626" y="34" rx="2" ry="2" width="12" height="12"/><rect class="c" x="626" y="50" rx="2" ry="2" width="12" height="12"/><rect class="c" x="626" y="66" rx="2" ry="2" width="12" height="12"/><rect class="c" x="626" y="82" rx="2" ry="2" width="12" height="12"/><rect class="c" x="626" y="98" rx="2" ry="2" width="12" height="12"/><rect class="c" x="642" y="2" rx="2" ry="2" width="12" height="12"/><rect class="c" x="642" y="18" rx="2" ry="2" width="12" height="12"/><rect class="c" x="642" y="34" rx="2" ry="2" width="12" height="12"/><rect class="c" x="642" y="50" rx="2" ry="2" width="12" height="12"/><rect class="c" x="642" y="66" rx="2" ry="2" width="12" height="12"/><rect class="c" x="642" y="82" rx="2" ry="2" width="12" height="12"/><rect class="c" x="642" y="98" rx="2" ry="2" width="12" height="12"/><rect class="c" x="658" y="2" rx="2" ry="2" width="12" height="12"/><rect class="c" x="658" y="18" rx="2" ry="2" width="12" height="12"/><rect class="c" x="658" y="34" rx="2" ry="2" width="12" height="12"/><rect class="c" x="658" y="50" rx="2" ry="2" width="12" height="12"/><rect class="c" x="658" y="66" rx="2" ry="2" width="12" height="12"/><rect class="c" x="658" y="82" rx="2" ry="2" width="12" height="12"/><rect class="c" x="658" y="98" rx="2" ry="2" width="12" height="12"/><rect class="c" x="674" y="2" rx="2" ry="2" width="12" height="12"/><rect class="c" x="674" y="18" rx="2" ry="2" width="12" height="12"/><rect class="c" x="674" y="34" rx="2" ry="2" width="12" height="12"/><rect class="c" x="674" y="50" rx="2" ry="2" width="12" height="12"/><rect class="c" x="674" y="66" rx="2" ry="2" width="12" height="12"/><rect class="c" x="674" y="82" rx="2" ry="2" width="12" height="12"/><rect class="c" x="674" y="98" rx="2" ry="2" width="12" height="12"/><rect class="c" x="690" y="2" rx="2" ry="2" width="12" height="12"/><rect class="c" x="690" y="18" rx="2" ry="2" width="12" height="12"/><rect class="c" x="690" y="34" rx="2" ry="2" width="12" height="12"/><rect class="c" x="690" y="50" rx="2" ry="2" width="12" height="12"/><rect class="c" x="690" y="66" rx="2" ry="2" width="12" height="12"/><rect class="c" x="690" y="82" rx="2" ry="2" width="12" height="12"/><rect class="c" x="690" y="98" rx="2" ry="2" width="12" height="12"/><rect class="c" x="706" y="2" rx="2" ry="2" width="12" height="12"/><rect class="c" x="706" y="18" rx="2" ry="2" width="12" height="12"/><rect class="c" x="706" y="34" rx="2" ry="2" width="12" height="12"/><rect class="c" x="706" y="50" rx="2" ry="2" width="12" height="12"/><rect class="c" x="706" y="66" rx="2" ry="2" width="12" height="12"/><rect class="c" x="706" y="82" rx="2" ry="2" width="12" height="12"/><rect class="c" x="706" y="98" rx="2" ry="2" width="12" height="12"/><rect class="c" x="722" y="2" rx="2" ry="2" width="12" height="12"/><rect class="c" x="722" y="18" rx="2" ry="2" width="12" height="12"/><rect class="c" x="722" y="34" rx="2" ry="2" width="12" height="12"/><rect class="c" x="722" y="50" rx="2" ry="2" width="12" height="12"/><rect class="c" x="722" y="66" rx="2" ry="2" width="12" height="12"/><rect class="c" x="722" y="82" rx="2" ry="2" width="12" height="12"/><rect class="c" x="722" y="98" rx="2" ry="2" width="12" height="12"/><rect class="c" x="738" y="2" rx="2" ry="2" width="12" height="12"/><rect class="c" x="738" y="18" rx="2" ry="2" width="12" height="12"/><rect class="c" x="738" y="34" rx="2" ry="2" width="12" height="12"/><rect class="c" x="738" y="50" rx="2" ry="2" width="12" height="12"/><rect class="c" x="738" y="66" rx="2" ry="2" width="12" height="12"/><rect class="c" x="738" y="82" rx="2" ry="2" width="12" height="12"/><rect class="c" x="738" y="98" rx="2" ry="2" width="12" height="12"/><rect class="c" x="754" y="2" rx="2" ry="2" width="12" height="12"/><rect class="c" x="754" y="18" rx="2" ry="2" width="12" height="12"/><rect class="c" x="754" y="34" rx="2" ry="2" width="12" height="12"/><rect class="c c1m" x="754" y="50" rx="2" ry="2" width="12" height="12"/><rect class="c" x="754" y="66" rx="2" ry="2" width="12" height="12"/><rect class="c" x="754" y="82" rx="2" ry="2" width="12" height="12"/><rect class="c" x="754" y="98" rx="2" ry="2" width="12" height="12"/><rect class="c" x="770" y="2" rx="2" ry="2" width="12" height="12"/><rect class="c" x="770" y="18" rx="2" ry="2" width="12" height="12"/><rect class="c c1n" x="770" y="34" rx="2" ry="2" width="12" height="12"/><rect class="c c1o" x="770" y="50" rx="2" ry="2" width="12" height="12"/><rect class="c" x="770" y="66" rx="2" ry="2" width="12" height="12"/><rect class="c" x="770" y="82" rx="2" ry="2" width="12" height="12"/><rect class="c" x="770" y="98" rx="2" ry="2" width="12" height="12"/><rect class="c" x="786" y="2" rx="2" ry="2" width="12" height="12"/><rect class="c" x="786" y="18" rx="2" ry="2" width="12" height="12"/><rect class="c" x="786" y="34" rx="2" ry="2" width="12" height="12"/><rect class="c" x="786" y="50" rx="2" ry="2" width="12" height="12"/><rect class="c" x="786" y="66" rx="2" ry="2" width="12" height="12"/><rect class="c" x="786" y="82" rx="2" ry="2" width="12" height="12"/><rect class="c" x="786" y="98" rx="2" ry="2" width="12" height="12"/><rect class="c" x="802" y="2" rx="2" ry="2" width="12" height="12"/><rect class="c" x="802" y="18" rx="2" ry="2" width="12" height="12"/><rect class="c" x="802" y="34" rx="2" ry="2" width="12" height="12"/><rect class="c" x="802" y="50" rx="2" ry="2" width="12" height="12"/><rect class="c" x="802" y="66" rx="2" ry="2" width="12" height="12"/><rect class="c" x="802" y="82" rx="2" ry="2" width="12" height="12"/><rect class="c" x="802" y="98" rx="2" ry="2" width="12" height="12"/><rect class="c" x="818" y="2" rx="2" ry="2" width="12" height="12"/><rect class="c" x="818" y="18" rx="2" ry="2" width="12" height="12"/><rect class="c" x="818" y="34" rx="2" ry="2" width="12" height="12"/><rect class="c" x="818" y="50" rx="2" ry="2" width="12" height="12"/><rect class="c" x="818" y="66" rx="2" ry="2" width="12" height="12"/><rect class="c" x="818" y="82" rx="2" ry="2" width="12" height="12"/><rect class="c" x="818" y="98" rx="2" ry="2" width="12" height="12"/><rect class="c" x="834" y="2" rx="2" ry="2" width="12" height="12"/><rect class="c" x="834" y="18" rx="2" ry="2" width="12" height="12"/><rect class="c" x="834" y="34" rx="2" ry="2" width="12" height="12"/><rect class="u u0" height="12" width="445.5" x="0.0" y="144"/><rect class="u u1" height="12" width="278.6" x="444.9" y="144"/><rect class="u u2" height="12" width="84.0" x="722.9" y="144"/><rect class="u u3" height="12" width="42.3" x="806.3" y="144"/><rect class="s s0" x="0.8" y="0.8" width="14.4" height="14.4" rx="4.5" ry="4.5"/><rect class="s s1" x="1.8" y="1.8" width="12.3" height="12.3" rx="4.1" ry="4.1"/><rect class="s s2" x="2.6" y="2.6" width="10.8" height="10.8" rx="3.6" ry="3.6"/><rect class="s s3" x="3.0" y="3.0" width="9.9" height="9.9" rx="3.3" ry="3.3"/></svg>